<svg width="23" height="23" viewBox="0 0 23 23" fill="none" xmlns="http://www.w3.org/2000/svg">
<rect x="0.890015" y="0.5" width="22" height="22" rx="11" fill="#F7CA18"/>
<path d="M11.8964 16.5864C11.1188 16.5864 10.4276 16.3848 9.8228 15.9816C9.218 15.5688 8.7428 14.9832 8.3972 14.2248C8.0516 13.4568 7.8788 12.5352 7.8788 11.46C7.8788 10.3848 8.0516 9.468 8.3972 8.7096C8.7428 7.9416 9.218 7.356 9.8228 6.9528C10.4276 6.54 11.1188 6.3336 11.8964 6.3336C12.674 6.3336 13.3652 6.54 13.97 6.9528C14.5748 7.356 15.05 7.9416 15.3956 8.7096C15.7508 9.468 15.9284 10.3848 15.9284 11.46C15.9284 12.5352 15.7508 13.4568 15.3956 14.2248C15.05 14.9832 14.5748 15.5688 13.97 15.9816C13.3652 16.3848 12.674 16.5864 11.8964 16.5864ZM11.8964 15.636C12.4916 15.636 13.01 15.4776 13.4516 15.1608C13.8932 14.8344 14.2388 14.364 14.4884 13.7496C14.738 13.1256 14.8628 12.3624 14.8628 11.46C14.8628 10.5576 14.738 9.7992 14.4884 9.1848C14.2388 8.5608 13.8932 8.0904 13.4516 7.7736C13.01 7.4472 12.4916 7.284 11.8964 7.284C11.3204 7.284 10.8068 7.4472 10.3556 7.7736C9.9044 8.0904 9.554 8.5608 9.3044 9.1848C9.0548 9.7992 8.93 10.5576 8.93 11.46C8.93 12.3624 9.0548 13.1256 9.3044 13.7496C9.554 14.364 9.9044 14.8344 10.3556 15.1608C10.8068 15.4776 11.3204 15.636 11.8964 15.636Z" fill="#333333"/>
</svg>
