<svg width="21" height="22" viewBox="0 0 21 22" fill="none" xmlns="http://www.w3.org/2000/svg">
<g clip-path="url(#clip0_1_285)">
<path d="M3.55666 6.16399L0.748657 3.35599L1.97932 2.12533L4.78732 4.93333H17.9953C18.134 4.93333 18.264 4.9651 18.3853 5.02866C18.5067 5.09221 18.6078 5.17888 18.6887 5.28866C18.7695 5.39844 18.8215 5.51977 18.8447 5.65266C18.8678 5.78555 18.862 5.91555 18.8273 6.04266L16.7473 12.976C16.6895 13.1609 16.5827 13.3111 16.4267 13.4267C16.2707 13.5422 16.1002 13.6 15.9153 13.6H5.28999V15.3333H14.8233V17.0667H4.42332C4.18066 17.0667 3.97555 16.9829 3.80799 16.8153C3.64043 16.6478 3.55666 16.4427 3.55666 16.2V6.16399ZM5.28999 6.66666V11.8667H15.274L16.834 6.66666H5.28999ZM4.85666 20.5333C4.49843 20.5333 4.19221 20.4062 3.93799 20.152C3.68377 19.8978 3.55666 19.5915 3.55666 19.2333C3.55666 18.8751 3.68377 18.5689 3.93799 18.3147C4.19221 18.0604 4.49843 17.9333 4.85666 17.9333C5.21488 17.9333 5.5211 18.0604 5.77532 18.3147C6.02955 18.5689 6.15666 18.8751 6.15666 19.2333C6.15666 19.5915 6.02955 19.8978 5.77532 20.152C5.5211 20.4062 5.21488 20.5333 4.85666 20.5333ZM15.2567 20.5333C14.8984 20.5333 14.5922 20.4062 14.338 20.152C14.0838 19.8978 13.9567 19.5915 13.9567 19.2333C13.9567 18.8751 14.0838 18.5689 14.338 18.3147C14.5922 18.0604 14.8984 17.9333 15.2567 17.9333C15.6149 17.9333 15.9211 18.0604 16.1753 18.3147C16.4295 18.5689 16.5567 18.8751 16.5567 19.2333C16.5567 19.5915 16.4295 19.8978 16.1753 20.152C15.9211 20.4062 15.6149 20.5333 15.2567 20.5333Z" fill="#2B2B2B"/>
</g>
<defs>
<clipPath id="clip0_1_285">
<rect width="20.8" height="21" fill="white" transform="matrix(1 0 0 -1 0.0899658 21.5)"/>
</clipPath>
</defs>
</svg>
