<svg width="21" height="22" viewBox="0 0 21 22" fill="none" xmlns="http://www.w3.org/2000/svg">
<path d="M10.49 19.6667L2.51664 11.6933C1.9042 10.9653 1.49975 10.1362 1.30331 9.20599C1.10687 8.27577 1.13575 7.35999 1.38998 6.45866C1.66731 5.53421 2.14687 4.72821 2.82864 4.04066C3.51042 3.3531 4.31353 2.87643 5.23798 2.61066C6.13931 2.34488 7.0522 2.31021 7.97664 2.50666C8.9242 2.7031 9.76198 3.1191 10.49 3.75466C11.218 3.1191 12.0558 2.7031 13.0033 2.50666C13.9162 2.31021 14.8233 2.34488 15.7246 2.61066C16.6491 2.87643 17.4551 3.35021 18.1426 4.03199C18.8302 4.71377 19.3069 5.51688 19.5726 6.44132C19.8384 7.34266 19.8731 8.25555 19.6766 9.17999C19.4802 10.116 19.07 10.9538 18.446 11.6933L10.49 19.6667ZM17.1286 10.5667C17.5678 10.0582 17.8538 9.48043 17.9866 8.83332C18.1195 8.18621 18.0935 7.54777 17.9086 6.91799C17.7238 6.28821 17.3944 5.73643 16.9206 5.26266C16.4469 4.78888 15.8951 4.45955 15.2653 4.27466C14.6355 4.08977 13.9971 4.06666 13.35 4.20532C12.7029 4.34399 12.1251 4.63288 11.6166 5.07199L10.49 6.04266L9.36331 5.07199C8.85487 4.63288 8.27709 4.34399 7.62998 4.20532C6.98287 4.06666 6.34442 4.08977 5.71464 4.27466C5.08487 4.45955 4.53309 4.78888 4.05931 5.26266C3.58553 5.73643 3.2562 6.28821 3.07131 6.91799C2.88642 7.54777 2.86042 8.18621 2.99331 8.83332C3.1262 9.48043 3.4122 10.0582 3.85131 10.5667L3.95531 10.6707L10.49 17.2227L17.0246 10.6707L17.1286 10.5667Z" fill="#2B2B2B"/>
</svg>
