<svg width="21" height="22" viewBox="0 0 21 22" fill="none" xmlns="http://www.w3.org/2000/svg">
<g clip-path="url(#clip0_1_295)">
<path d="M10.4899 16.2C9.55394 16.2 8.68149 15.9631 7.8726 15.4893C7.08683 15.0271 6.46283 14.4031 6.0006 13.6173C5.52683 12.8084 5.28994 11.936 5.28994 11C5.28994 10.064 5.52683 9.19155 6.0006 8.38266C6.46283 7.59688 7.08683 6.97288 7.8726 6.51066C8.68149 6.03688 9.55394 5.79999 10.4899 5.79999C11.4259 5.79999 12.2984 6.03688 13.1073 6.51066C13.893 6.97288 14.517 7.59688 14.9793 8.38266C15.453 9.19155 15.6899 10.064 15.6899 11C15.6899 11.936 15.453 12.8084 14.9793 13.6173C14.517 14.4031 13.893 15.0271 13.1073 15.4893C12.2984 15.9631 11.4259 16.2 10.4899 16.2ZM10.4899 14.4667C11.1139 14.4667 11.6917 14.3107 12.2233 13.9987C12.7548 13.6867 13.1766 13.2649 13.4886 12.7333C13.8006 12.2018 13.9566 11.624 13.9566 11C13.9566 10.376 13.8006 9.79821 13.4886 9.26666C13.1766 8.7351 12.7548 8.31333 12.2233 8.00133C11.6917 7.68933 11.1139 7.53333 10.4899 7.53333C9.86594 7.53333 9.28816 7.68933 8.7566 8.00133C8.22505 8.31333 7.80327 8.7351 7.49127 9.26666C7.17927 9.79821 7.02327 10.376 7.02327 11C7.02327 11.624 7.17927 12.2018 7.49127 12.7333C7.80327 13.2649 8.22505 13.6867 8.7566 13.9987C9.28816 14.3107 9.86594 14.4667 10.4899 14.4667ZM9.62327 1.46666H11.3566V4.06666H9.62327V1.46666ZM9.62327 17.9333H11.3566V20.5333H9.62327V17.9333ZM3.1406 4.86399L4.35394 3.65066L6.2086 5.48799L4.97794 6.70133L3.1406 4.86399ZM14.7886 16.512L16.0019 15.2813L17.8393 17.136L16.6259 18.3493L14.7886 16.512ZM16.6259 3.65066L17.8393 4.86399L16.0019 6.70133L14.7886 5.48799L16.6259 3.65066ZM4.97794 15.2813L6.2086 16.512L4.35394 18.3493L3.1406 17.136L4.97794 15.2813ZM20.0233 10.1333V11.8667H17.4233V10.1333H20.0233ZM3.5566 10.1333V11.8667H0.956604V10.1333H3.5566Z" fill="#2B2B2B"/>
</g>
<defs>
<clipPath id="clip0_1_295">
<rect width="20.8" height="21" fill="white" transform="matrix(1 0 0 -1 0.0899658 21.5)"/>
</clipPath>
</defs>
</svg>
