<svg width="21" height="22" viewBox="0 0 21 22" fill="none" xmlns="http://www.w3.org/2000/svg">
<path d="M3.55664 19.6667C3.55664 18.4071 3.87442 17.24 4.50997 16.1653C5.12242 15.1253 5.94864 14.2991 6.98864 13.6867C8.06331 13.0511 9.23042 12.7333 10.49 12.7333C11.7495 12.7333 12.9166 13.0511 13.9913 13.6867C15.0313 14.2991 15.8575 15.1253 16.47 16.1653C17.1055 17.24 17.4233 18.4071 17.4233 19.6667H15.69C15.69 18.7307 15.4531 17.8582 14.9793 17.0493C14.5171 16.2635 13.8931 15.6395 13.1073 15.1773C12.2984 14.7035 11.426 14.4667 10.49 14.4667C9.55397 14.4667 8.68153 14.7035 7.87264 15.1773C7.08686 15.6395 6.46286 16.2635 6.00064 17.0493C5.52686 17.8582 5.28997 18.7307 5.28997 19.6667H3.55664ZM10.49 11.8667C9.54242 11.8667 8.66997 11.6298 7.87264 11.156C7.08686 10.6938 6.46286 10.0698 6.00064 9.28399C5.52686 8.48666 5.28997 7.61421 5.28997 6.66666C5.28997 5.7191 5.52686 4.84666 6.00064 4.04932C6.46286 3.26355 7.08686 2.63955 7.87264 2.17732C8.66997 1.70355 9.54242 1.46666 10.49 1.46666C11.4375 1.46666 12.31 1.70355 13.1073 2.17732C13.8931 2.63955 14.5171 3.26355 14.9793 4.04932C15.4531 4.84666 15.69 5.7191 15.69 6.66666C15.69 7.61421 15.4531 8.48666 14.9793 9.28399C14.5171 10.0698 13.8931 10.6938 13.1073 11.156C12.31 11.6298 11.4375 11.8667 10.49 11.8667ZM10.49 10.1333C11.114 10.1333 11.6918 9.97732 12.2233 9.66532C12.7549 9.35332 13.1766 8.93155 13.4886 8.39999C13.8006 7.86843 13.9566 7.29066 13.9566 6.66666C13.9566 6.04266 13.8006 5.46488 13.4886 4.93332C13.1766 4.40177 12.7549 3.97999 12.2233 3.66799C11.6918 3.35599 11.114 3.19999 10.49 3.19999C9.86597 3.19999 9.2882 3.35599 8.75664 3.66799C8.22508 3.97999 7.80331 4.40177 7.49131 4.93332C7.17931 5.46488 7.02331 6.04266 7.02331 6.66666C7.02331 7.29066 7.17931 7.86843 7.49131 8.39999C7.80331 8.93155 8.22508 9.35332 8.75664 9.66532C9.2882 9.97732 9.86597 10.1333 10.49 10.1333Z" fill="#2B2B2B"/>
</svg>
